<svg width="558" height="597" viewBox="0 0 558 597" fill="none" xmlns="http://www.w3.org/2000/svg">
<g id="glowa">
<path id="glowa_2" d="M194 260C180.4 220 192 168.333 199.5 147.5C265.167 143 368 144 412.5 86C439 106 469.5 136 489 160L469.5 454L420.5 540.5C394 544.667 344.2 543.1 357 503.5C369.8 463.9 370 414.667 368.5 395C321 399.5 268.5 384.5 239.5 367.5C210.5 350.5 186.5 318 179.5 306C173.9 296.4 177 294.5 184.5 289C192 283.5 202.5 278 194 260Z" fill="#FFECD7" stroke="black"/>
<g id="glowa cien" style="mix-blend-mode:multiply">
<path d="M194 260C180.4 220 192 168.333 199.5 147.5C285.5 94.5 441.5 152.5 498 282L469.5 454L420.5 540.5C394 544.667 344.2 543.1 357 503.5C369.8 463.9 370 414.667 368.5 395C321 399.5 268.5 384.5 239.5 367.5C210.5 350.5 186.5 318 179.5 306C173.9 296.4 177 294.5 184.5 289C192 283.5 202.5 278 194 260Z" fill="url(#paint0_linear)"/>
<path d="M194 260C180.4 220 192 168.333 199.5 147.5C285.5 94.5 441.5 152.5 498 282L469.5 454L420.5 540.5C394 544.667 344.2 543.1 357 503.5C369.8 463.9 370 414.667 368.5 395C321 399.5 268.5 384.5 239.5 367.5C210.5 350.5 186.5 318 179.5 306C173.9 296.4 177 294.5 184.5 289C192 283.5 202.5 278 194 260Z" stroke="black"/>
</g>
<path id="Vector 8" d="M222 354.5C225.5 351.667 232.896 343.646 238 336.5C243.104 329.354 239.5 328.5 238 327" stroke="black"/>
<path id="Vector 9" d="M199.5 303C202.167 303.333 207.4 302.5 207 296.5" stroke="black"/>
<path id="Vector 44" d="M368 395C371.833 394.167 378.6 391.2 383 388" stroke="black"/>
</g>
<g id="ucho">
<path id="ucho_2" d="M489 160L465 240C431 168 341.228 236.463 412.5 86C430.5 48 465.5 12.6667 481 1C486.5 8.33333 500 35.4 510 85C519.2 141 499.833 158.333 489 160Z" fill="#FFECD7" stroke="black"/>
<circle id="Ellipse 2" cx="499" cy="112" r="7" fill="black"/>
<circle id="Ellipse 5" cx="492" cy="136" r="10.5" fill="#B4A201" stroke="black"/>
<circle id="Ellipse 4" cx="492" cy="136" r="5" fill="black"/>
<circle id="Ellipse 3" cx="500" cy="92" r="6" fill="black"/>
<path id="Vector 22" d="M501.5 131.5C500.268 133.153 498 135.022 496 134.62" stroke="black"/>
<path id="Vector 23" d="M487.523 145.274C487.149 143.247 488.345 140.193 490 139" stroke="black"/>
<path id="Vector 24" d="M488.911 134.322C486.864 134.079 483.15 133.433 482.5 131.5" stroke="black"/>
<path id="Vector 28" d="M488.454 136.128C486.871 137.449 483.851 139.705 482 138.849" stroke="black"/>
<path id="Vector 27" d="M491.637 132.366C490.282 130.813 487.959 127.843 488.774 125.973" stroke="black"/>
<path id="Vector 25" d="M501.774 140.102C499.716 139.991 495.773 139.046 495 137.159" stroke="black"/>
<path id="Vector 26" d="M495.274 145.664C493.792 144.231 491.435 140.932 492.089 139" stroke="black"/>
<path id="Vector 29" d="M495 29.5L494 26.5C511 25 514.334 36.2988 510.5 45.5C508 51.5 496 58.9 486 54.5C476 50.1 480.5 38.6667 483.5 34H489C486 40.5 495.122 45.7849 500 40.5C506 34 499 29.3333 495 29.5Z" fill="url(#paint1_linear)" stroke="black"/>
<ellipse id="Ellipse 6" cx="486.548" cy="45.8503" rx="1.95396" ry="5.98616" transform="rotate(43.8828 486.548 45.8503)" fill="url(#paint2_diamond)"/>
<ellipse id="Ellipse 7" cx="502.558" cy="29.669" rx="0.945235" ry="2.89583" transform="rotate(43.8828 502.558 29.669)" fill="url(#paint3_diamond)"/>
<path id="Vector 21" d="M496 126.5C495.952 128.561 495.127 132.53 493.264 133.36" stroke="black"/>
<path id="Vector 20" d="M475 59.5C478.167 63 484.5 75.8 484.5 99C484.5 128 476 135 474 139.5" stroke="black"/>
<g id="Vector 50" style="mix-blend-mode:multiply">
<path d="M484.5 99C484.9 74.2 476.667 60 472.5 56C439 61 423 90.5 431 96.5C437.4 101.3 462.667 126.5 474.5 138.5C477.667 135.667 484.1 123.8 484.5 99Z" fill="url(#paint4_linear)"/>
</g>
</g>
<g id="Oko">
<path id="Vector 11" d="M234.5 280.5C216.9 248.9 235.55 217 247.883 207L282 234C273.2 264 247 280.167 234.5 280.5Z" fill="black"/>
<path id="Vector 10" d="M237 279.5C219.4 247.9 239.667 220 252 210L285.5 241C276.7 271 249.5 279.167 237 279.5Z" fill="white" stroke="black"/>
<path id="Vector 12" d="M237 279C228 262.5 229.5 245.5 235 232.5C235 232.5 244 233 256.5 242.5C269 252 275 260 275 260C263.5 273.5 248.5 278.5 237 279Z" fill="url(#paint5_radial)"/>
<ellipse id="Ellipse 1" cx="235.962" cy="245.78" rx="2.28334" ry="10.6556" transform="rotate(9.89426 235.962 245.78)" fill="url(#paint6_diamond)"/>
</g>
<g id="wlosy">
<path id="Vector 2" d="M432.586 52.4906C363.386 9.69063 238.586 21.4906 177.586 21.4906C175.42 39.1573 173.786 82.4906 184.586 114.491C198.086 154.491 212.586 165.491 224.086 181.491C233.286 194.291 260.253 221.824 272.586 233.991C290.753 251.157 330.986 289.491 346.586 305.491C366.086 325.491 388.586 360.491 395.586 370.991C402.586 381.491 410.586 390.491 414.086 408.491C416.886 422.891 422.586 438.491 425.086 444.491C431.886 462.891 430.586 477.491 429.086 482.491C423.886 522.091 399.586 532.657 388.086 532.991C356.486 531.391 352.92 496.324 355.086 478.991C337.886 495.391 342.92 521.824 347.586 532.991C321.986 512.191 315.92 474.657 316.086 458.491C301.586 498.991 319.186 568.491 359.586 586.491C399.986 604.491 428.42 591.991 437.586 583.491C489.186 571.491 506.42 534.824 508.586 517.991C523.786 500.791 528.92 479.491 529.586 470.991C539.186 457.391 541.586 431.324 541.586 419.991C549.186 406.791 546.753 383.824 544.586 373.991C551.386 348.391 545.086 327.657 541.086 320.491C545.486 317.291 542.92 301.157 541.086 293.491C545.086 297.091 546.42 288.324 546.586 283.491C549.786 283.491 550.92 270.824 551.086 264.491C553.086 262.491 554.92 248.657 555.586 241.991C558.386 234.391 555.753 223.824 554.086 219.491C556.886 216.291 555.253 207.157 554.086 202.991C555.286 193.791 547.92 181.157 544.086 175.991C544.086 171.591 540.086 163.824 538.086 160.491C537.286 148.091 519.753 130.991 511.086 123.991C505.486 147.591 494.42 157.157 489.586 158.991C482.086 145.491 463.586 128.491 456.586 120.491C449.919 112.871 421.086 88.9906 417.086 86.9906C413.886 85.3906 415.753 80.9906 417.086 78.9906L432.586 52.4906Z" fill="url(#paint7_linear)" stroke="black"/>
<g id="Vector 13" style="mix-blend-mode:multiply" opacity="0.6">
<path d="M432.586 52.4906C363.386 9.69063 238.586 21.4906 177.586 21.4906C175.42 39.1573 173.786 82.4906 184.586 114.491C198.086 154.491 212.586 165.491 224.086 181.491C233.286 194.291 260.253 221.824 272.586 233.991C290.753 251.157 330.986 289.491 346.586 305.491C366.086 325.491 388.586 360.491 395.586 370.991C402.586 381.491 410.586 390.491 414.086 408.491C416.886 422.891 422.586 438.491 425.086 444.491C431.886 462.891 430.586 477.491 429.086 482.491C423.886 522.091 399.586 532.657 388.086 532.991C356.486 531.391 352.92 496.324 355.086 478.991C337.886 495.391 342.92 521.824 347.586 532.991C321.986 512.191 315.92 474.657 316.086 458.491C301.586 498.991 319.186 568.491 359.586 586.491C399.986 604.491 428.42 591.991 437.586 583.491C489.186 571.491 506.42 534.824 508.586 517.991C523.786 500.791 528.92 479.491 529.586 470.991C539.186 457.391 541.586 431.324 541.586 419.991C549.186 406.791 546.753 383.824 544.586 373.991C551.386 348.391 545.086 327.657 541.086 320.491C545.486 317.291 542.92 301.157 541.086 293.491C545.086 297.091 546.42 288.324 546.586 283.491C549.786 283.491 550.92 270.824 551.086 264.491C553.086 262.491 554.92 248.657 555.586 241.991C558.386 234.391 555.753 223.824 554.086 219.491C556.886 216.291 555.253 207.157 554.086 202.991C555.286 193.791 547.92 181.157 544.086 175.991C544.086 171.591 540.086 163.824 538.086 160.491C537.286 148.091 519.753 130.991 511.086 123.991C505.486 147.591 494.42 157.157 489.586 158.991C482.086 145.491 463.586 128.491 456.586 120.491C449.919 112.871 421.086 88.9906 417.086 86.9906C413.886 85.3906 415.753 80.9906 417.086 78.9906L432.586 52.4906Z" fill="url(#paint8_radial)"/>
<path d="M432.586 52.4906C363.386 9.69063 238.586 21.4906 177.586 21.4906C175.42 39.1573 173.786 82.4906 184.586 114.491C198.086 154.491 212.586 165.491 224.086 181.491C233.286 194.291 260.253 221.824 272.586 233.991C290.753 251.157 330.986 289.491 346.586 305.491C366.086 325.491 388.586 360.491 395.586 370.991C402.586 381.491 410.586 390.491 414.086 408.491C416.886 422.891 422.586 438.491 425.086 444.491C431.886 462.891 430.586 477.491 429.086 482.491C423.886 522.091 399.586 532.657 388.086 532.991C356.486 531.391 352.92 496.324 355.086 478.991C337.886 495.391 342.92 521.824 347.586 532.991C321.986 512.191 315.92 474.657 316.086 458.491C301.586 498.991 319.186 568.491 359.586 586.491C399.986 604.491 428.42 591.991 437.586 583.491C489.186 571.491 506.42 534.824 508.586 517.991C523.786 500.791 528.92 479.491 529.586 470.991C539.186 457.391 541.586 431.324 541.586 419.991C549.186 406.791 546.753 383.824 544.586 373.991C551.386 348.391 545.086 327.657 541.086 320.491C545.486 317.291 542.92 301.157 541.086 293.491C545.086 297.091 546.42 288.324 546.586 283.491C549.786 283.491 550.92 270.824 551.086 264.491C553.086 262.491 554.92 248.657 555.586 241.991C558.386 234.391 555.753 223.824 554.086 219.491C556.886 216.291 555.253 207.157 554.086 202.991C555.286 193.791 547.92 181.157 544.086 175.991C544.086 171.591 540.086 163.824 538.086 160.491C537.286 148.091 519.753 130.991 511.086 123.991C505.486 147.591 494.42 157.157 489.586 158.991C482.086 145.491 463.586 128.491 456.586 120.491C449.919 112.871 421.086 88.9906 417.086 86.9906C413.886 85.3906 415.753 80.9906 417.086 78.9906L432.586 52.4906Z" stroke="black"/>
</g>
<path id="Vector 3" d="M348 533.5C349.5 535.333 355.8 539.2 365 538M316 458.5C312.667 473.333 313.955 508.134 333.5 533.5C357 564 389 566.5 405 545.5C421.688 523.597 424 508.5 426.5 498" stroke="black"/>
<path id="Vector 4" d="M437.5 583.5C445 575 461.5 543.5 458.5 496C456.7 467.5 455 445 439 418C439 418 426 399.5 418 388C410 376.5 402 365 396.5 358.5C391 352 373.5 334 373.5 334L359.5 320" stroke="black"/>
<path id="Vector 5" d="M509.5 517.5C506.5 495.5 504 468 490.5 441C464.65 389.301 442 374 402.5 329C363 284 316 258 266.5 228" stroke="black"/>
<path id="Vector 7" d="M544.5 374C541 359.667 528.8 327 502 307C468.5 282 438 258 428 251.5C418 245 328 175 317 167.5C306 160 248.5 121 234.5 106.5C221.978 93.5308 189 44.5 188.5 22.5M541 320.5C533 307.667 513.2 280 488 264C456.5 244 418 218.585 412 214.085C349 166.835 286.5 135.5 247 85C214.54 43.5 223 34 220.5 24" stroke="black"/>
<path id="Vector 6" d="M529.5 471C529.167 461.833 527.1 439.2 521.5 428C511.457 407.914 500.197 390.037 486 372.5C464.994 346.551 445.325 324.768 419.5 303.5C396.685 287.249 373.386 272.717 349 259C341 254.5 338 252 302.5 228.5C268.398 205.925 239.255 187.617 215.5 152.5C204 135.5 179.5 89 178 83M541.5 419.5C537 400 515.991 362.038 502.5 344.5C473.908 307.33 430.438 282.824 392.5 256.5C368 239.5 376 244.5 342.5 221C298.506 190.139 250.374 156.259 213 117.5C186 89.5 181 67 176 59.5" stroke="black"/>
<path id="Vector 14" d="M541.5 294.5C538 283.5 523.1 254.3 485.5 229.5C438.5 198.5 391 171.5 388 167C385 162.5 330.543 130.77 319.5 118.5C306 103.5 273 86.5 248.5 20.5M275.5 20.5C279.833 32 297.5 63.2 333.5 96C378.5 137 466.5 184.5 473 189.5C493.474 205.25 517.5 222.5 523 234.5" stroke="black"/>
<path id="Vector 15" d="M238 20C240.522 33.1688 256.652 67.2052 297 98" stroke="black"/>
<path id="Vector 17" d="M355.5 26C368 47.8333 396.4 91.4 410 91C411 90.6667 414.4 91.1 420 95.5C425.6 99.9 442.667 110.667 450.5 115.5" stroke="black"/>
<path id="Vector 16" d="M305 21.5C307 39.5 338.964 74.9633 365.5 96.5C400 124.5 430 147.5 470.5 168.5C483.5 174 503.5 187 512 199M329.5 23.5C333 36 367.7 80.4 394.5 100C428 124.5 485.5 161 490 159.5" stroke="black"/>
<path id="Vector 18" d="M378 31C379.333 36.5 385.3 49.8 396.5 55C410.5 61.5 418 64 423.5 68" stroke="black"/>
<path id="Vector 19" d="M399.5 37.5C402.5 45 408.5 51.5 414.5 52.5C420.5 53.5 425 61.5 427 63" stroke="black"/>
<path id="Vector 43" d="M532 251C536 256.167 544.5 270.7 546.5 283.5" stroke="black"/>
<path id="Vector 42" d="M520.5 222.5C532.5 231 536.5 234 538.5 237C540.5 240 548 251.5 551 265" stroke="black"/>
<path id="Vector 41" d="M513.5 203C517.167 205.833 526.5 211.7 530.5 212.5C535.5 213.5 552 226.5 555.5 242.5" stroke="black"/>
<path id="Vector 40" d="M505.5 182.5C521 196.5 526.5 190.5 534.5 198C537.441 200.757 552 210.5 554.5 221" stroke="black"/>
<path id="Vector 39" d="M495 156C501 165.5 519.619 178.177 528 179.5C537.5 181 553 200 555 208" stroke="black"/>
<path id="Vector 38" d="M499.5 151C510 161.5 535.5 162.5 544.5 177.5" stroke="black"/>
<path id="Vector 37" d="M506 140.5C512.5 144.5 530.7 153.4 539.5 163" stroke="black"/>
<path id="Vector 36" d="M490 159.5C497.833 169.667 513.2 191.8 512 199C516.167 207.833 523.3 227.1 522.5 233.5C528.167 240.667 539.3 262.2 536.5 283" stroke="black"/>
</g>
<g id="rog">
<path id="Vector 49" d="M67 64C67.8 63.6 77.6667 71.5 82.5 75.5L84.5 78C83.6667 79.8333 81.8 83.5 81 83.5C80 83.5 67.5 69 67 68.5C66.5 68 66 64.5 67 64Z" fill="url(#paint9_linear)" stroke="black"/>
<path id="Vector 48" d="M83 75C84.2 74.2 87.1667 77.6667 88.5 79.5L91.5 82.5L92.5 88C91.6667 88.6667 89.6 90 88 90C86 90 81 85.5 81 84C81 82.5 81.5 76 83 75Z" fill="url(#paint10_linear)" stroke="black"/>
<path id="Vector 47" d="M88.5 79C89.7 78.6 94.6667 82.8333 97 85L101.5 91C100.833 93.8333 99.1 99.6 97.5 100C95.5 100.5 88 91.5 88.5 89.5C88.9 87.9 88.6667 81.8333 88.5 79Z" fill="url(#paint11_linear)" stroke="black"/>
<path id="Vector 46" d="M97 85C99.8 85 104.5 89.3333 106.5 91.5L109.5 95.5L111 103C110.667 104.833 109.3 108.5 106.5 108.5C103 108.5 96.5 101.5 97.5 100C98.3 98.8 97.5 89.5 97 85Z" fill="url(#paint12_linear)" stroke="black"/>
<path id="Vector 45" d="M106.5 91.5C110.9 92.3 116.667 98.1667 119 101L122 104.5C122.333 109.333 122 118.9 118 118.5C113 118 105 111.5 106.5 108C107.7 105.2 107 95.8333 106.5 91.5Z" fill="url(#paint13_linear)" stroke="black"/>
<path id="Vector 35" d="M119 100.5C126.6 101.3 130.833 107.167 132 110L135.5 116C135.833 119.167 135.2 125.7 130 126.5C124.8 127.3 120.5 122.167 119 119.5C117.4 117.9 118.333 106.167 119 100.5Z" fill="url(#paint14_linear)" stroke="black"/>
<path id="Vector 34" d="M132 110C137.6 110.8 143.333 119 145.5 123L149 127.5L150 134.5L148 140L143 140.5C132 138 128.5 126 130 124C131.2 122.4 131.833 114 132 110Z" fill="url(#paint15_linear)" stroke="black"/>
<path id="Vector 33" d="M145.5 122.5C151.1 122.9 157.167 128.333 159.5 131L163.5 135.5L160.5 148L157.5 151C140 151 143 137.5 144 132.5C144.67 129.149 145.5 124.5 145.5 122.5Z" fill="url(#paint16_linear)" stroke="black"/>
<path id="Vector 32" d="M159.5 131C166.7 131.4 172.5 137.5 174.5 140.5L176.5 144L177.5 148.5V152L175.5 156.5C177.5 157.667 179 159.9 169 159.5C156.5 159 156 146.5 157.5 143C158.419 140.856 159.333 134.167 159.5 131Z" fill="url(#paint17_linear)" stroke="black"/>
<path id="Vector 31" d="M174 140.5C177.2 138.9 182.667 142.833 185 145L188.5 147.5V154L182.5 165.5L181 171.5C172 172.5 170.5 167 169.5 161.5C168.5 156 171 152.5 173 149C174.6 146.2 174.333 142.167 174 140.5Z" fill="url(#paint18_linear)" stroke="black"/>
<path id="Vector 30" d="M185 144.5C190.6 144.1 196.167 147.833 198.5 150C196.167 156 191.2 171.2 190 184C184.8 182 181.333 175.167 180.5 172.5C179.667 169.833 178.9 163.2 182.5 158C186.1 152.8 185.667 146.833 185 144.5Z" fill="url(#paint19_linear)" stroke="black"/>
</g>
<g id="gwiazdki">
<path id="Star 1" d="M106.562 19.5L107.867 23.5163H112.091L108.674 25.9986L109.979 30.0149L106.562 27.5327L103.146 30.0149L104.451 25.9986L101.034 23.5163H105.258L106.562 19.5Z" fill="#F06ABA"/>
<path id="Star 11" d="M83.3125 13.6875L84.6175 17.7038H88.8405L85.424 20.1861L86.729 24.2024L83.3125 21.7202L79.896 24.2024L81.201 20.1861L77.7845 17.7038H82.0075L83.3125 13.6875Z" fill="#F06ABA"/>
<path id="Star 20" d="M118.188 36.9375L119.492 40.9538H123.716L120.299 43.4361L121.604 47.4524L118.188 44.9702L114.771 47.4524L116.076 43.4361L112.659 40.9538H116.883L118.188 36.9375Z" fill="#F06ABA"/>
<path id="Star 19" d="M63.9375 29.1875L65.2425 33.2038H69.4655L66.049 35.6861L67.354 39.7024L63.9375 37.2202L60.521 39.7024L61.826 35.6861L58.4095 33.2038H62.6325L63.9375 29.1875Z" fill="#F06ABA"/>
<path id="Star 18" d="M63.9375 29.1875L65.2425 33.2038H69.4655L66.049 35.6861L67.354 39.7024L63.9375 37.2202L60.521 39.7024L61.826 35.6861L58.4095 33.2038H62.6325L63.9375 29.1875Z" fill="#F06ABA"/>
<path id="Star 17" d="M63.9375 29.1875L65.2425 33.2038H69.4655L66.049 35.6861L67.354 39.7024L63.9375 37.2202L60.521 39.7024L61.826 35.6861L58.4095 33.2038H62.6325L63.9375 29.1875Z" fill="#F06ABA"/>
<path id="Star 16" d="M63.9375 29.1875L65.2425 33.2038H69.4655L66.049 35.6861L67.354 39.7024L63.9375 37.2202L60.521 39.7024L61.826 35.6861L58.4095 33.2038H62.6325L63.9375 29.1875Z" fill="#F06ABA"/>
<path id="Star 15" d="M63.9375 29.1875L65.2425 33.2038H69.4655L66.049 35.6861L67.354 39.7024L63.9375 37.2202L60.521 39.7024L61.826 35.6861L58.4095 33.2038H62.6325L63.9375 29.1875Z" fill="#F06ABA"/>
<path id="Star 14" d="M40.6875 4L41.9925 8.01634H46.2155L42.799 10.4986L44.104 14.5149L40.6875 12.0327L37.271 14.5149L38.576 10.4986L35.1595 8.01634H39.3825L40.6875 4Z" fill="#F06ABA"/>
<path id="Star 13" d="M58.125 50.5L59.43 54.5163H63.653L60.2365 56.9986L61.5415 61.0149L58.125 58.5327L54.7085 61.0149L56.0135 56.9986L52.597 54.5163H56.82L58.125 50.5Z" fill="#F06ABA"/>
<path id="Star 12" d="M17.4375 67.9375L18.7425 71.9538H22.9655L19.549 74.4361L20.854 78.4524L17.4375 75.9702L14.021 78.4524L15.326 74.4361L11.9095 71.9538H16.1325L17.4375 67.9375Z" fill="#F06ABA"/>
<path id="Star 10" d="M91.0625 35L92.3675 39.0163H96.5905L93.174 41.4986L94.479 45.5149L91.0625 43.0327L87.646 45.5149L88.951 41.4986L85.5345 39.0163H89.7575L91.0625 35Z" fill="#F06ABA"/>
<path id="Star 9" d="M79.4375 48.5625L80.7425 52.5788H84.9655L81.549 55.0611L82.854 59.0774L79.4375 56.5952L76.021 59.0774L77.326 55.0611L73.9095 52.5788H78.1325L79.4375 48.5625Z" fill="#F06ABA"/>
<path id="Star 8" d="M42.625 25.3125L43.93 29.3288H48.153L44.7365 31.8111L46.0415 35.8274L42.625 33.3452L39.2085 35.8274L40.5135 31.8111L37.097 29.3288H41.32L42.625 25.3125Z" fill="#F06ABA"/>
<path id="Star 7" d="M5.8125 42.75L7.11749 46.7663H11.3405L7.92401 49.2486L9.229 53.2649L5.8125 50.7827L2.396 53.2649L3.70099 49.2486L0.284484 46.7663H4.50751L5.8125 42.75Z" fill="#F06ABA"/>
<path id="Star 6" d="M52.3125 73.75L53.6175 77.7663H57.8405L54.424 80.2486L55.729 84.2649L52.3125 81.7827L48.896 84.2649L50.201 80.2486L46.7845 77.7663H51.0075L52.3125 73.75Z" fill="#F06ABA"/>
<path id="Star 5" d="M58.125 7.875L59.43 11.8913H63.653L60.2365 14.3736L61.5415 18.3899L58.125 15.9077L54.7085 18.3899L56.0135 14.3736L52.597 11.8913H56.82L58.125 7.875Z" fill="#F06ABA"/>
<path id="Star 4" d="M25.1875 13.6875L26.4925 17.7038H30.7155L27.299 20.1861L28.604 24.2024L25.1875 21.7202L21.771 24.2024L23.076 20.1861L19.6595 17.7038H23.8825L25.1875 13.6875Z" fill="#F06ABA"/>
<path id="Star 3" d="M100.75 54.375L102.055 58.3913H106.278L102.862 60.8736L104.167 64.8899L100.75 62.4077L97.3335 64.8899L98.6385 60.8736L95.222 58.3913H99.445L100.75 54.375Z" fill="#F06ABA"/>
<path id="Star 2" d="M36.8125 48.5625L38.1175 52.5788H42.3405L38.924 55.0611L40.229 59.0774L36.8125 56.5952L33.396 59.0774L34.701 55.0611L31.2845 52.5788H35.5075L36.8125 48.5625Z" fill="#F06ABA"/>
</g>
<path id="oko-close" d="M228.7 265.54C226.666 264.399 215.353 237.089 209.951 223.576C210.14 229.973 220.893 255.266 226.246 267.113C227.4 279.084 218.567 289.35 214.006 292.986C218.368 291.657 225.318 286.482 228.248 284.061L232.246 283.943C231.153 287.577 226.025 293.464 223.59 295.704C228.752 294.351 235.177 287.191 237.744 283.78L241.242 283.677C242.089 285.252 239.46 291.066 238.039 293.776C241.214 292.882 244.839 286.905 246.255 284.029L249.753 283.925C250.612 285.901 250.21 288.08 249.901 288.923C252.229 286.453 253.105 284.493 253.252 283.822C295.068 276.982 312.948 267.049 316.662 262.937C311.159 266.301 296.152 268.546 289.336 269.248C294.887 267.483 306.122 261.748 311.046 259.102C236.141 280.326 231.244 266.965 228.7 265.54Z" fill="black" stroke="black"/>
<defs>
<linearGradient id="paint0_linear" x1="412" y1="316" x2="254" y2="408" gradientUnits="userSpaceOnUse">
<stop stop-color="#8A4B00"/>
<stop offset="1" stop-color="white" stop-opacity="0"/>
</linearGradient>
<linearGradient id="paint1_linear" x1="496" y1="40" x2="508.5" y2="51.5" gradientUnits="userSpaceOnUse">
<stop stop-color="#D7C102"/>
<stop offset="1" stop-color="#8F8104"/>
</linearGradient>
<radialGradient id="paint2_diamond" cx="0" cy="0" r="1" gradientUnits="userSpaceOnUse" gradientTransform="translate(486.548 45.8503) rotate(90) scale(5.98616 1.95396)">
<stop stop-color="white"/>
<stop offset="1" stop-color="white" stop-opacity="0"/>
</radialGradient>
<radialGradient id="paint3_diamond" cx="0" cy="0" r="1" gradientUnits="userSpaceOnUse" gradientTransform="translate(502.558 29.669) rotate(90) scale(2.89583 0.945235)">
<stop stop-color="white"/>
<stop offset="1" stop-color="white" stop-opacity="0"/>
</radialGradient>
<linearGradient id="paint4_linear" x1="512" y1="107" x2="472.5" y2="68" gradientUnits="userSpaceOnUse">
<stop stop-color="#914E00"/>
<stop offset="1" stop-color="#C4C4C4" stop-opacity="0"/>
</linearGradient>
<radialGradient id="paint5_radial" cx="0" cy="0" r="1" gradientUnits="userSpaceOnUse" gradientTransform="translate(235.5 257.5) rotate(169.563) scale(19.3197 16.5268)">
<stop stop-color="#FAFF01"/>
<stop offset="1" stop-color="#A88D00"/>
</radialGradient>
<radialGradient id="paint6_diamond" cx="0" cy="0" r="1" gradientUnits="userSpaceOnUse" gradientTransform="translate(235.962 245.78) rotate(90) scale(10.6556 2.28334)">
<stop stop-color="white"/>
<stop offset="1" stop-color="white" stop-opacity="0"/>
</radialGradient>
<linearGradient id="paint7_linear" x1="351.586" y1="54.4906" x2="464.586" y2="546.491" gradientUnits="userSpaceOnUse">
<stop stop-color="#AE2424"/>
<stop offset="1" stop-color="#C91D3C"/>
</linearGradient>
<radialGradient id="paint8_radial" cx="0" cy="0" r="1" gradientUnits="userSpaceOnUse" gradientTransform="translate(279 -57) rotate(68.1986) scale(624.679 413.219)">
<stop offset="0.0296636"/>
<stop offset="1" stop-color="white" stop-opacity="0"/>
</radialGradient>
<linearGradient id="paint9_linear" x1="75.4613" y1="63.9854" x2="75.4613" y2="83.5" gradientUnits="userSpaceOnUse">
<stop stop-color="#FFF5EB"/>
<stop offset="1" stop-color="#FFC485"/>
</linearGradient>
<linearGradient id="paint10_linear" x1="86.75" y1="74.8821" x2="86.75" y2="90" gradientUnits="userSpaceOnUse">
<stop stop-color="#FFF5EB"/>
<stop offset="1" stop-color="#FFC485"/>
</linearGradient>
<linearGradient id="paint11_linear" x1="94.9881" y1="78.9735" x2="94.9881" y2="100.02" gradientUnits="userSpaceOnUse">
<stop stop-color="#FFF5EB"/>
<stop offset="1" stop-color="#FFC485"/>
</linearGradient>
<linearGradient id="paint12_linear" x1="104" y1="85" x2="104" y2="108.5" gradientUnits="userSpaceOnUse">
<stop stop-color="#FFF5EB"/>
<stop offset="1" stop-color="#FFC485"/>
</linearGradient>
<linearGradient id="paint13_linear" x1="114.207" y1="91.5" x2="114.207" y2="118.512" gradientUnits="userSpaceOnUse">
<stop stop-color="#FFF5EB"/>
<stop offset="1" stop-color="#FFC485"/>
</linearGradient>
<linearGradient id="paint14_linear" x1="126.845" y1="100.5" x2="126.845" y2="126.584" gradientUnits="userSpaceOnUse">
<stop stop-color="#FFF5EB"/>
<stop offset="1" stop-color="#FFC485"/>
</linearGradient>
<linearGradient id="paint15_linear" x1="139.835" y1="110" x2="139.835" y2="140.5" gradientUnits="userSpaceOnUse">
<stop stop-color="#FFF5EB"/>
<stop offset="1" stop-color="#FFC485"/>
</linearGradient>
<linearGradient id="paint16_linear" x1="153.331" y1="122.5" x2="153.331" y2="151" gradientUnits="userSpaceOnUse">
<stop stop-color="#FFF5EB"/>
<stop offset="1" stop-color="#FFC485"/>
</linearGradient>
<linearGradient id="paint17_linear" x1="167.202" y1="131" x2="167.202" y2="159.547" gradientUnits="userSpaceOnUse">
<stop stop-color="#FFF5EB"/>
<stop offset="1" stop-color="#FFC485"/>
</linearGradient>
<linearGradient id="paint18_linear" x1="178.886" y1="140.127" x2="178.886" y2="171.619" gradientUnits="userSpaceOnUse">
<stop stop-color="#FFF5EB"/>
<stop offset="1" stop-color="#FFC485"/>
</linearGradient>
<linearGradient id="paint19_linear" x1="189.152" y1="144.47" x2="189.152" y2="184" gradientUnits="userSpaceOnUse">
<stop stop-color="#FFF5EB"/>
<stop offset="1" stop-color="#FFC485"/>
</linearGradient>
</defs>
</svg>
